<svg width="32" height="32" viewBox="0 0 32 32" fill="none" xmlns="http://www.w3.org/2000/svg">
<g clip-path="url(#clip0_1414_27041)">
<path d="M16 30C23.732 30 30 23.732 30 16C30 8.26801 23.732 2 16 2C8.26801 2 2 8.26801 2 16C2 23.732 8.26801 30 16 30Z" fill="#958FDC"/>
<path d="M25.7845 16.012C25.7845 10.663 21.4287 6.32703 16.0564 6.32703C10.6841 6.32703 6.32715 10.663 6.32715 16.012C6.32715 17.1178 6.51377 18.18 6.85626 19.17C6.85847 19.1744 6.87712 19.2312 6.87712 19.2312C7.01544 19.6694 6.32935 19.8409 6.32935 20.1032C6.32935 20.5141 7.77617 20.4583 7.77617 20.9359C7.77617 21.3522 6.34472 21.4812 6.34472 21.9008C6.34472 22.4809 9.51388 22.2788 9.5545 22.7772C9.58523 23.1619 8.46444 23.1858 8.45786 23.5967C8.44689 24.2535 12.7829 24.0381 12.7829 24.4752C12.7829 24.8063 10.8103 24.6861 10.8103 25.0774C10.8103 25.4685 13.4065 25.7155 16.2683 25.7155C19.13 25.7155 21.1038 25.3987 21.1038 25.0566C21.1038 24.7146 19.2618 24.7845 19.3002 24.4763C19.3661 23.9376 23.4551 24.2131 23.4551 23.589C23.4551 23.2602 22.331 23.1837 22.3673 22.8295C22.4189 22.3292 25.7845 22.4034 25.7845 21.8833C25.7845 21.4747 24.116 21.3741 24.1192 20.949C24.1215 20.5152 25.7845 20.5337 25.7735 20.1272C25.7647 19.8148 25.0294 19.8223 25.2598 19.1602C25.6 18.1734 25.7868 17.1146 25.7868 16.012H25.7845ZM22.6933 18.7624C22.3552 19.5241 21.5955 19.3711 21.5099 19.6913C21.421 20.0224 22.4464 20.0705 22.4464 20.4168C22.4464 20.8375 19.3211 20.6693 19.3518 21.2244C19.3715 21.5741 21.5714 21.6331 21.5297 21.9981C21.4693 22.527 18.1212 22.2625 18.0883 22.7695C18.0641 23.141 19.7228 23.1542 19.7262 23.493C19.7295 23.778 18.4242 23.9333 15.9236 23.9333C13.076 23.9333 11.6907 23.7803 11.8488 23.4623C11.9959 23.165 14.5174 23.2198 14.4921 22.752C14.4669 22.2855 10.0145 22.422 9.88052 21.9685C9.76856 21.5916 11.3438 21.5139 11.3339 21.1555C11.324 20.7906 9.31739 20.8736 9.27348 20.431C9.24494 20.1415 10.3218 20.1589 10.2757 19.794C10.2417 19.5285 9.7971 19.5656 9.53364 19.0181C9.10881 18.1035 8.86951 17.0851 8.86951 16.0109C8.86951 12.0596 12.0881 8.85564 16.0575 8.85564C20.0268 8.85564 23.2454 12.0596 23.2454 16.0109C23.2454 16.9856 23.0489 17.9144 22.6943 18.7613L22.6933 18.7624Z" fill="#2B1D3C"/>
<path fill-rule="evenodd" clip-rule="evenodd" d="M6.85619 19.17C6.51369 18.18 6.32707 17.1179 6.32707 16.012C6.32707 10.6631 10.684 6.32707 16.0563 6.32707C21.4287 6.32707 25.7844 10.6631 25.7844 16.012H25.7867C25.7867 16.0381 25.7865 16.0642 25.7863 16.0902C25.7778 17.1647 25.5919 18.1968 25.2598 19.1602C25.1168 19.5709 25.3452 19.7238 25.5415 19.8554C25.6619 19.9359 25.7701 20.0086 25.7734 20.1272C25.7788 20.3276 25.3777 20.4247 24.9691 20.5236C24.5486 20.6254 24.1203 20.729 24.1191 20.949C24.1175 21.1637 24.5426 21.2957 24.9637 21.4264C25.376 21.5543 25.7844 21.681 25.7844 21.8833C25.7844 22.1467 24.9211 22.2577 24.0622 22.3681C23.2252 22.4757 22.3927 22.5826 22.3672 22.8296C22.3486 23.0116 22.6365 23.1202 22.9207 23.2275C23.1895 23.329 23.455 23.4293 23.455 23.5891C23.455 23.9132 22.3516 23.9947 21.2818 24.0736C20.2924 24.1466 19.3318 24.2175 19.3001 24.4763C19.2813 24.6272 19.7124 24.6874 20.1578 24.7497C20.623 24.8148 21.1037 24.882 21.1037 25.0566C21.1037 25.3987 19.13 25.7155 16.2682 25.7155C13.4064 25.7155 10.8102 25.4686 10.8102 25.0774C10.8102 24.8736 11.3454 24.8086 11.8582 24.7463C12.33 24.6889 12.7829 24.634 12.7829 24.4753C12.7829 24.2789 11.9082 24.2143 10.9456 24.1431C9.76483 24.0556 8.45173 23.9585 8.45779 23.5968C8.46109 23.3897 8.74715 23.2809 9.02631 23.1748C9.30134 23.0702 9.56968 22.968 9.55442 22.7772C9.53493 22.538 8.79492 22.4603 8.03044 22.3798C7.20192 22.2927 6.34464 22.2025 6.34464 21.9008C6.34464 21.6907 6.7039 21.5533 7.06248 21.4163C7.41963 21.2799 7.77609 21.1436 7.77609 20.9359C7.77609 20.6883 7.3867 20.584 7.01194 20.4837C6.66432 20.3906 6.32928 20.301 6.32928 20.1032C6.32928 19.9961 6.44383 19.9041 6.56989 19.8028C6.75232 19.6563 6.95884 19.4904 6.87705 19.2312C6.87705 19.2312 6.85839 19.1744 6.85619 19.17ZM6.80276 19.2553C6.83011 19.3422 6.81699 19.413 6.78141 19.4778C6.7438 19.5464 6.6804 19.6094 6.60468 19.6734C6.58002 19.6943 6.55298 19.7161 6.52552 19.7382C6.47444 19.7793 6.42187 19.8215 6.38024 19.8616C6.31612 19.9233 6.25123 20.0031 6.25123 20.1032C6.25123 20.1806 6.28625 20.2438 6.33689 20.2933C6.38608 20.3414 6.45227 20.3794 6.52381 20.4111C6.65511 20.4692 6.82512 20.5147 6.99024 20.5588C7.00436 20.5626 7.01845 20.5663 7.03248 20.5701C7.21495 20.6191 7.38775 20.6678 7.51496 20.732C7.64526 20.7976 7.69804 20.864 7.69804 20.9359C7.69804 20.9635 7.68668 20.9935 7.6562 21.0278C7.62501 21.0631 7.5772 21.099 7.51356 21.1356C7.38582 21.2091 7.21338 21.275 7.03255 21.3442L7.03022 21.345C6.85384 21.4124 6.66939 21.4828 6.52929 21.5638C6.45869 21.6047 6.39466 21.6508 6.3476 21.7043C6.29981 21.7586 6.26659 21.8242 6.26659 21.9008C6.26659 22.0149 6.34587 22.096 6.4414 22.152C6.5383 22.209 6.67132 22.2528 6.82252 22.2885C7.126 22.3604 7.52864 22.4056 7.92612 22.4475C7.95788 22.4509 7.98963 22.4542 8.0213 22.4575C8.38878 22.4962 8.7458 22.5336 9.02057 22.5882C9.17023 22.618 9.28965 22.6518 9.37122 22.6908C9.45786 22.7323 9.47522 22.7664 9.47664 22.7835C9.48059 22.8336 9.45044 22.8843 9.35578 22.9433C9.26289 23.0011 9.13385 23.0502 8.99299 23.1038L8.99239 23.104C8.85579 23.1559 8.70819 23.2123 8.59488 23.2832C8.48283 23.3533 8.38208 23.4517 8.37975 23.5954C8.37755 23.7271 8.48475 23.8155 8.60606 23.8754C8.73303 23.9377 8.90967 23.9865 9.11402 24.0264C9.52411 24.1064 10.0695 24.1548 10.6103 24.1963C10.7211 24.2049 10.8317 24.2129 10.9411 24.2212C11.3676 24.2527 11.7743 24.2828 12.0957 24.3235C12.2981 24.3493 12.4616 24.3785 12.5732 24.4137C12.6295 24.4313 12.667 24.4487 12.689 24.4644C12.6977 24.4705 12.702 24.4749 12.7041 24.4775C12.7035 24.4786 12.7025 24.4802 12.7007 24.4823C12.6949 24.4894 12.683 24.4996 12.661 24.5113C12.6168 24.5353 12.5482 24.5575 12.4576 24.5778C12.2921 24.6147 12.0748 24.6412 11.8478 24.6688C11.8276 24.6713 11.8074 24.6737 11.7871 24.6762C11.5418 24.7061 11.2896 24.7386 11.0985 24.7892C11.0035 24.8144 10.917 24.8456 10.8527 24.8871C10.7887 24.9284 10.7322 24.9901 10.7322 25.0774C10.7322 25.1723 10.8091 25.2391 10.8884 25.2848C10.9737 25.334 11.0938 25.3779 11.2402 25.4177C11.5342 25.4974 11.9528 25.5653 12.4575 25.6208C13.468 25.7319 14.8355 25.7937 16.2682 25.7937C17.7015 25.7937 18.9142 25.7144 19.7702 25.5918C20.1975 25.5305 20.5391 25.4581 20.7756 25.3779C20.8933 25.338 20.9894 25.2948 21.0578 25.2474C21.1229 25.202 21.1817 25.1394 21.1817 25.0566C21.1817 24.9735 21.1247 24.9166 21.0659 24.8799C21.0059 24.8422 20.9252 24.8134 20.8368 24.7896C20.659 24.7416 20.4247 24.708 20.1982 24.6763L20.1711 24.6725C19.9511 24.6419 19.7406 24.6123 19.5847 24.5731C19.503 24.5526 19.4434 24.5309 19.4069 24.5089C19.389 24.498 19.3811 24.4896 19.3783 24.4854C19.378 24.4853 19.3779 24.4849 19.3778 24.4847C19.379 24.4772 19.3845 24.4637 19.4073 24.4448C19.4317 24.4247 19.4703 24.4033 19.5254 24.3822C19.6354 24.34 19.794 24.3052 19.9888 24.2756C20.3477 24.221 20.8127 24.1867 21.2885 24.1515C21.3282 24.1486 21.3681 24.1456 21.408 24.1426C21.9222 24.1044 22.4398 24.0633 22.8292 23.9921C23.0231 23.9566 23.1913 23.9126 23.3127 23.8549C23.4286 23.7998 23.533 23.7165 23.533 23.5891C23.533 23.5236 23.5045 23.4687 23.465 23.4244C23.4261 23.381 23.3741 23.3448 23.3181 23.3133C23.2138 23.2546 23.0787 23.2036 22.9503 23.1551C22.9419 23.1519 22.9335 23.1488 22.9251 23.1456C22.7851 23.0928 22.6556 23.0422 22.563 22.985C22.4662 22.9251 22.4407 22.8773 22.4449 22.8376C22.4466 22.8199 22.4678 22.783 22.5628 22.737C22.6514 22.6941 22.78 22.6554 22.9398 22.6201C23.2508 22.5511 23.6596 22.4986 24.0745 22.4453L24.1051 22.4414C24.5277 22.387 24.9544 22.3315 25.2755 22.2564C25.4355 22.219 25.5749 22.1754 25.6761 22.1219C25.772 22.0713 25.8625 21.9957 25.8625 21.8833C25.8625 21.8028 25.8208 21.7374 25.766 21.6861C25.7118 21.6354 25.6381 21.5921 25.5569 21.554C25.3989 21.4796 25.1913 21.4152 24.9899 21.3527L24.9736 21.3477C24.7636 21.2824 24.5615 21.219 24.4121 21.1464C24.3372 21.1102 24.2808 21.0741 24.2442 21.0384C24.2084 21.0034 24.197 20.9744 24.1972 20.9497V20.9494C24.1973 20.9233 24.2091 20.8956 24.2441 20.8636C24.2801 20.8305 24.3358 20.7982 24.4103 20.7668C24.5594 20.7042 24.7605 20.6545 24.9696 20.6039L24.9906 20.5988C25.1892 20.5507 25.3936 20.5014 25.549 20.4387C25.6294 20.4063 25.703 20.368 25.7573 20.3201C25.8126 20.2712 25.8537 20.2065 25.8514 20.1251C25.8483 20.0117 25.7778 19.9344 25.706 19.8764C25.6696 19.8472 25.6287 19.8197 25.5896 19.7937L25.5858 19.7909C25.5471 19.7652 25.5098 19.7401 25.4743 19.7128C25.4012 19.6566 25.3438 19.5966 25.3145 19.5191C25.2858 19.4432 25.2802 19.339 25.3334 19.186V19.1857C25.6766 18.191 25.8647 17.1235 25.8647 16.012V15.9339H25.8621C25.8199 10.5773 21.4451 6.2489 16.0563 6.2489C10.6413 6.2489 6.24902 10.6194 6.24902 16.012C6.24902 17.1268 6.43715 18.1976 6.78244 19.1956L6.78414 19.2005L6.78482 19.2019C6.78529 19.2032 6.78591 19.205 6.78664 19.2071C6.78857 19.2126 6.791 19.2198 6.79345 19.2271C6.79586 19.2344 6.79824 19.2415 6.80001 19.2469L6.80213 19.2533L6.80264 19.2548M12.7057 24.4802C12.7057 24.4802 12.7055 24.48 12.7054 24.4793C12.7056 24.4798 12.7057 24.4802 12.7057 24.4802ZM22.6943 18.7614C23.0488 17.9145 23.2453 16.9857 23.2453 16.0109C23.2453 12.0596 20.0267 8.85568 16.0574 8.85568C12.088 8.85568 8.86944 12.0596 8.86944 16.0109C8.86944 17.0851 9.10873 18.1035 9.53356 19.0182C9.68032 19.3231 9.88325 19.4467 10.0401 19.5422C10.1649 19.6181 10.2606 19.6764 10.2756 19.794C10.3001 19.9874 10.0092 20.0733 9.73453 20.1547C9.49088 20.2266 9.25999 20.2949 9.27341 20.431C9.29635 20.6624 9.85544 20.75 10.3854 20.8332C10.8694 20.9091 11.3291 20.9814 11.3339 21.1555C11.3386 21.3291 10.9717 21.4367 10.6047 21.5445C10.2138 21.6593 9.8227 21.7741 9.88045 21.9686C9.94663 22.1927 11.0678 22.2727 12.188 22.3525C13.3341 22.4344 14.4793 22.5161 14.492 22.752C14.5063 23.0163 13.7078 23.1138 12.9838 23.2021C12.4262 23.2702 11.9127 23.333 11.8487 23.4624C11.6906 23.7803 13.076 23.9333 15.9235 23.9333C18.4241 23.9333 19.7294 23.7781 19.7261 23.493C19.7245 23.3281 19.3312 23.2405 18.9305 23.151C18.5073 23.0567 18.0758 22.9603 18.0882 22.7695C18.1045 22.5184 18.9337 22.4566 19.774 22.3938C20.6308 22.3299 21.4992 22.265 21.5296 21.9981C21.5508 21.8121 20.9905 21.7055 20.4329 21.5997C19.8958 21.4975 19.3614 21.396 19.3517 21.2245C19.3353 20.9273 20.2231 20.8374 21.0519 20.7535C21.7713 20.6807 22.4463 20.6123 22.4463 20.4168C22.4463 20.246 22.1969 20.1479 21.9549 20.0523C21.706 19.9543 21.4647 19.8591 21.5099 19.6913C21.5443 19.5625 21.6878 19.5103 21.869 19.4443C22.1383 19.3462 22.4911 19.2178 22.6932 18.7625L22.6943 18.7614ZM22.6283 18.7169C22.9751 17.8832 23.1673 16.9696 23.1673 16.0109C23.1673 12.1032 19.9842 8.93386 16.0574 8.93386C12.1306 8.93386 8.94749 12.1032 8.94749 16.0109C8.94749 17.0732 9.18405 18.0802 9.60409 18.9847C9.72668 19.2391 9.88957 19.3569 10.0318 19.4454C10.0468 19.4547 10.062 19.464 10.0772 19.4732C10.1326 19.5068 10.1884 19.5408 10.2325 19.5777C10.2927 19.6283 10.3413 19.6922 10.3531 19.784C10.3707 19.9239 10.2755 20.0157 10.1734 20.0745C10.0701 20.134 9.93181 20.1774 9.80336 20.2158C9.78765 20.2205 9.77207 20.225 9.75667 20.2296C9.64143 20.2637 9.53638 20.2949 9.45733 20.3316C9.41273 20.3523 9.38338 20.3719 9.36663 20.3895C9.35181 20.4051 9.35025 20.4149 9.35107 20.4233C9.35335 20.4464 9.3688 20.4756 9.41843 20.5099C9.46796 20.5441 9.54123 20.5757 9.63552 20.605C9.82364 20.6631 10.0732 20.7049 10.3285 20.7451C10.3517 20.7488 10.375 20.7525 10.3983 20.7562C10.6276 20.792 10.8568 20.8281 11.0339 20.875C11.1311 20.9009 11.2189 20.9315 11.2844 20.9707C11.3479 21.0089 11.4095 21.0671 11.4119 21.1534M11.4119 21.1534C11.414 21.2302 11.3725 21.2912 11.3214 21.3365C11.2705 21.3816 11.2016 21.4194 11.1266 21.4523C10.9863 21.5141 10.8041 21.5675 10.6283 21.6191C10.6158 21.6228 10.6033 21.6264 10.5908 21.6301C10.3997 21.6863 10.2209 21.7407 10.0966 21.8028C10.034 21.834 9.99317 21.8636 9.97113 21.8902C9.95199 21.9131 9.95015 21.929 9.95526 21.9463C9.95516 21.946 9.95601 21.9493 9.96203 21.9556C9.96818 21.9621 9.97833 21.9703 9.99418 21.9799C10.0263 21.9992 10.074 22.019 10.1385 22.0384C10.267 22.0771 10.447 22.1101 10.6643 22.1392C11.0885 22.1957 11.6403 22.2351 12.1952 22.2748L12.2325 22.2774C12.7982 22.3177 13.3643 22.3588 13.7906 22.4192C14.0032 22.4493 14.1855 22.4848 14.3169 22.5289C14.3823 22.5508 14.4401 22.5765 14.4834 22.608C14.5261 22.6392 14.5666 22.6847 14.57 22.7478C14.5753 22.8476 14.5106 22.92 14.4345 22.9701C14.3575 23.0205 14.2513 23.0606 14.1312 23.0938C13.8899 23.1608 13.5671 23.2077 13.2448 23.2487C13.1599 23.2594 13.075 23.2699 12.9914 23.28C12.7549 23.3089 12.5285 23.3365 12.3405 23.3687C12.2133 23.3906 12.1075 23.4139 12.0303 23.4398C11.9917 23.4527 11.963 23.4655 11.9432 23.4774C11.9224 23.49 11.9183 23.4977 11.9186 23.497L11.9186 23.4972C11.9142 23.5059 11.9145 23.5101 11.9146 23.511C11.9148 23.5121 11.9154 23.5163 11.922 23.5243C11.9373 23.543 11.9741 23.5691 12.0465 23.5971C12.1887 23.6524 12.4275 23.7005 12.7678 23.7394C13.4457 23.8169 14.5002 23.8551 15.9235 23.8551C17.1729 23.8551 18.1208 23.8164 18.7547 23.7424C19.0724 23.7054 19.3068 23.6599 19.4599 23.608C19.5367 23.5819 19.5878 23.5558 19.6181 23.5322C19.648 23.5087 19.648 23.4956 19.648 23.4939C19.6479 23.4872 19.6445 23.4699 19.6076 23.4429C19.5712 23.4162 19.5149 23.3894 19.4395 23.363C19.2969 23.3129 19.1082 23.2707 18.9114 23.2268L18.8798 23.2198C18.6754 23.1741 18.464 23.1258 18.3054 23.0646C18.2264 23.0341 18.154 22.9979 18.101 22.9529C18.0472 22.9073 18.0051 22.8444 18.0103 22.7645C18.0176 22.6533 18.1134 22.5847 18.2113 22.5412C18.3152 22.4946 18.4567 22.4601 18.6182 22.4323C18.9352 22.3781 19.3517 22.3469 19.7656 22.3161L19.7928 22.314C20.2185 22.2822 20.6392 22.2501 20.9574 22.1934C21.117 22.1651 21.2451 22.1313 21.3335 22.0911C21.4269 22.0485 21.4497 22.0111 21.4521 21.9892C21.4523 21.9876 21.4526 21.9843 21.4476 21.9768C21.4414 21.9677 21.429 21.9549 21.4057 21.9395C21.359 21.9085 21.285 21.8776 21.1866 21.8471C20.991 21.7864 20.7241 21.7346 20.4492 21.6823L20.4163 21.6761C20.1547 21.6263 19.8887 21.5757 19.6844 21.5165C19.5786 21.4859 19.4839 21.4514 19.4137 21.4108C19.3484 21.373 19.2787 21.3153 19.2738 21.2288L19.2738 21.2287C19.2675 21.1154 19.3444 21.0351 19.4359 20.9805C19.5287 20.9249 19.6577 20.8822 19.8041 20.8472C20.0987 20.7768 20.4917 20.7324 20.8795 20.6925C20.9346 20.6869 20.9898 20.6813 21.0444 20.6757C21.3772 20.6419 21.6966 20.6097 21.9447 20.5654C22.0896 20.5397 22.2044 20.5108 22.2813 20.4777C22.3198 20.4611 22.3437 20.4455 22.357 20.4328C22.3633 20.4266 22.3661 20.4224 22.3672 20.4202C22.3682 20.4182 22.3682 20.4174 22.3682 20.4168C22.3682 20.3738 22.3369 20.3262 22.2464 20.2705C22.1603 20.2173 22.0448 20.1719 21.9222 20.1235L21.916 20.1211C21.796 20.0737 21.6672 20.0227 21.575 19.9604C21.5284 19.9289 21.485 19.8906 21.457 19.8425C21.4276 19.7917 21.4178 19.7335 21.4344 19.671C21.4649 19.5572 21.5548 19.4933 21.6495 19.4477C21.6975 19.4246 21.7512 19.4042 21.806 19.3841C21.8182 19.3796 21.8305 19.3751 21.8429 19.3706C21.8868 19.3546 21.9316 19.3383 21.978 19.3198C22.2114 19.2266 22.4645 19.0852 22.622 18.7307L22.6278 18.7173L22.6283 18.7169" fill="#2B1D3C"/>
</g>
<defs>
<clipPath id="clip0_1414_27041">
<rect width="28" height="28" fill="white" transform="translate(2 2)"/>
</clipPath>
</defs>
</svg>
